<svg xmlns="http://www.w3.org/2000/svg" width="515.497" height="157.268" viewBox="0 0 515.497 157.268"><defs><style>.a,.c{fill:#6c63ff;}.a{opacity:0.3;}.b{fill:none;stroke:#3f3d56;stroke-miterlimit:10;}.d{fill:#f2f2f2;}.e{fill:#47465a;}.f{opacity:0.1;}.g{fill:#7a799c;}.h{fill:#9493b6;}.i{fill:#ff6584;}.j{fill:#fbbebe;}</style></defs><g transform="translate(177.958 4.883)"><rect class="a" width="29.971" height="11.162" transform="translate(51.881 19.016)"/><rect class="a" width="29.971" height="11.162" transform="translate(2.067)"/><rect class="a" width="29.971" height="11.162" transform="translate(0 34.518)"/><rect class="a" width="29.971" height="11.162" transform="translate(95.907 47.334)"/><rect class="a" width="29.971" height="11.162" transform="translate(105.415 93.221)"/><rect class="a" width="29.971" height="11.162" transform="translate(60.149 92.187)"/><path class="b" d="M772.2,14.856l19.843,18.828L770.13,49.445" transform="translate(-740.159 -9.346)"/><line class="b" x2="29.041" y2="22.995" transform="translate(81.852 24.339)"/><path class="b" d="M630.668,192.418,621.16,157.7,585.4,191.394" transform="translate(-510.267 -99.207)"/><rect class="a" width="29.971" height="11.162" transform="translate(254.034 30.515)"/><rect class="a" width="29.971" height="11.162" transform="translate(204.219 11.499)"/><rect class="a" width="29.971" height="11.162" transform="translate(202.153 46.017)"/><rect class="a" width="29.971" height="11.162" transform="translate(298.06 58.832)"/><rect class="a" width="29.971" height="11.162" transform="translate(307.568 104.719)"/><rect class="a" width="29.971" height="11.162" transform="translate(262.301 103.685)"/><path class="b" d="M227.2,45.856,247.04,64.684,225.13,80.445" transform="translate(6.994 -28.847)"/><line class="b" x2="29.041" y2="22.995" transform="translate(284.005 35.837)"/><path class="b" d="M85.668,223.418,76.16,188.7,40.4,222.394" transform="translate(236.886 -118.708)"/><line class="b" x1="33.989" transform="translate(168.163 51.598)"/><rect class="c" width="35.238" height="11.128" transform="translate(148.183 45.885)"/><line class="b" x1="22.259" transform="translate(125.878 51.449)"/><line class="b" y1="34.44" x2="20.63" transform="translate(183.59 17.009)"/></g><ellipse class="d" cx="108.461" cy="24.157" rx="108.461" ry="24.157" transform="translate(0 108.954)"/><path class="e" d="M838.809,391.611,849.385,444.6h2.289l.252-.391.729-1.135-9.159-49.5-1.39-.582Z" transform="translate(-780.63 -338.02)"/><path class="f" d="M838.809,397.21l9.82,51.219.729-1.135-9.159-49.5Z" transform="translate(-777.332 -342.239)"/><path class="e" d="M881.6,469.791l2.719.877.661.214.872-1.963,14.965-68.264-1.556-.349L896,399.572Z" transform="translate(-839.345 -344.019)"/><path class="f" d="M881.6,472.907l.661.214.872-1.963L898.1,402.894l-1.556-.349Z" transform="translate(-836.625 -346.259)"/><path class="e" d="M408.865,391.611l2.4,68.692,2.749.611.2.044.763-1.417-1.527-67.274-1.469-.209Z" transform="translate(-236.963 -338.02)"/><path class="f" d="M408.865,393.415l2.037,68.858.2.044.763-1.417-1.527-67.275Z" transform="translate(-233.852 -339.38)"/><path class="e" d="M419.039,488.283l2.844.491.319.055.872-1.853,13.847-89.736-.4-.121-2.109-.642Z" transform="translate(-261.421 -341.686)"/><path class="f" d="M419.039,490.737l.318.055.872-1.853L434.077,399.2l-.4-.121Z" transform="translate(-258.577 -343.649)"/><path class="g" d="M830.433,401.617l-10.588,13.529a3.433,3.433,0,0,1-3.1,1.294l-43.463-5.09a3.433,3.433,0,0,1-3.034-3.41V397.91Z" transform="translate(-733.002 -353.587)"/><path class="e" d="M883.331,377.9h-2.944v4.249a1.094,1.094,0,0,0,1.094,1.094h.756a1.094,1.094,0,0,0,1.094-1.094V377.9Z" transform="translate(-821.555 -327.687)"/><path class="g" d="M513.726,436.56l-10.588,13.529a3.433,3.433,0,0,1-3.1,1.294l-43.463-5.09a3.433,3.433,0,0,1-3.034-3.41v-10.03Z" transform="translate(-338.226 -379.917)"/><path class="e" d="M566.624,412.842H563.68v4.249a1.094,1.094,0,0,0,1.094,1.094h.756a1.094,1.094,0,0,0,1.094-1.094v-4.249Z" transform="translate(-426.778 -354.018)"/><path class="e" d="M533.332,374.419,404.052,359.36a1.9,1.9,0,0,1-.636-3.586l23.126-11.63a26.766,26.766,0,0,1,14.741-2.716l114.855,11.711a2.2,2.2,0,0,1,1.346,3.721L544.11,370.582A12.984,12.984,0,0,1,533.332,374.419Z" transform="translate(-369.996 -310.924)"/><path class="e" d="M1067.4,403.981l1.383-.764s1.493,1.1,2.709,5.729-2.273.05-2.273.05l-1.526-3.162Z" transform="translate(-1047.562 -357.586)"/><path class="e" d="M797.135,539.565s1.418,6.651,2.072,8.5c.321.907,1.869,1.737,3.585,2.372a24.009,24.009,0,0,0,4.7,1.227c1.854.218,25.623-3.489,37.181-6,7.786-1.689,8.792-3.627,8.62-4.71a1.572,1.572,0,0,0-.443-.851s-11.449-7.741-15.483-11.449-11.994-.763-20.717.763S797.135,539.565,797.135,539.565Z" transform="translate(-762.509 -450.756)"/><path class="e" d="M995.44,403.217s-5.343,3.489,12.648,10.685c0,0,9.779,5.513,8.505,28.225a6.223,6.223,0,0,1-.905,2.885c-1.856,3.053-5.834,10.781.8,11.741V458.5s-11.994-6-13.3-11.121-5.67-33.583-7.85-36.2S991.733,404.416,995.44,403.217Z" transform="translate(-974.224 -357.586)"/><path class="f" d="M797.133,593.522a24.016,24.016,0,0,0,4.7,1.227c1.854.218,25.623-3.489,37.181-6,7.786-1.689,8.793-3.627,8.62-4.71-5.118,1.75-21.737,7.3-27.7,7.763-7.087.545-20.627,2.061-21.653,1.03C797.886,592.438,797.483,592.857,797.133,593.522Z" transform="translate(-756.849 -493.837)"/><path class="e" d="M769.846,647.285l-10.358-47.321s-1.854-5.016-6.106-4.8l-3.925,1.963s6.542-1.526,7.96,3.489,10.467,46.667,10.467,46.667Z" transform="translate(-667.291 -502.214)"/><path class="e" d="M821.8,586.82l-4.143-28.894h-1.854l4.253,28.894Z" transform="translate(-744.109 -463.338)"/><path class="e" d="M1015.022,656.425l3.925-45.141s0-3.816-1.963-5.67-8.3-7.141-8.3-7.141-1.624-.382-2.932,3.325S995.4,642.577,995.4,642.577l1.745.763,11.231-42.742,7.742,7.305a7.664,7.664,0,0,1,.763,5.234c-.763,2.508-3.6,43.287-3.6,43.287Z" transform="translate(-977.017 -504.703)"/><path class="e" d="M939.711,579.158l-9.813,2.835-2.181-2.072,5.67-.763Z" transform="translate(-889.601 -479.336)"/><path class="g" d="M644.665,284.759l-1.591,23.867-34.782-3.38,1.384-23.331a2.346,2.346,0,0,1,2.539-2.2l30.306,2.549A2.347,2.347,0,0,1,644.665,284.759Z" transform="translate(-507.317 -264.522)"/><path class="g" d="M581.595,345.465l34.673,3.783,1.309.143,10.14-6.542v-1.418l-34.455-3.1Z" transform="translate(-492.287 -297.872)"/><path class="f" d="M581.595,359.186l1.309.143,10.14-6.542v-1.269Z" transform="translate(-457.614 -307.81)"/><path class="h" d="M615.093,248.374l-1.2,21.262-30.53-2.835,1.091-20.717Z" transform="translate(-480.1 -228.366)"/><path class="f" d="M672.171,362.513l-3.707,2.508-11.231-1.09,3.816-2.4Z" transform="translate(-555.386 -315.356)"/><path class="h" d="M630.422,344.462l-4.688,3.489-29.985-2.835,5.343-3.489Z" transform="translate(-498.482 -300.357)"/><rect class="i" width="22.134" height="22.134" transform="translate(56.597 11.885)"/><rect class="f" width="22.134" height="22.134" transform="translate(56.597 11.885)"/><path class="j" d="M890.443,295.4s-3.123,8.456,0,10.018-11.189,0-11.189,0l-4.033-3.253s9.107-2.6,7.806-8.587S890.443,295.4,890.443,295.4Z" transform="translate(-819.335 -273.274)"/><path class="f" d="M890.443,295.4s-3.123,8.456,0,10.018-11.189,0-11.189,0l-4.033-3.253s9.107-2.6,7.806-8.587S890.443,295.4,890.443,295.4Z" transform="translate(-819.335 -273.274)"/><path class="j" d="M793.746,646.982s-11.709,16.523-9.757,21.076.911,7.416,4.814,8.977,4.944,4.423,1.561,4.293-7.806-1.041-8.456-2.212-2.212-6.765-4.423-7.546-6.375-3.773-3.383-7.416,10.532-17.06,9.949-18.418S793.746,646.982,793.746,646.982Z" transform="translate(-697.008 -540.029)"/><path class="h" d="M745.811,519.512s24.2,1.561,30.443,7.416-5.464,27.711-6.765,27.972-11.449-.781-11.059-3.643,7.286-14.571,7.286-14.571-8.977-3.252-13.921-4.033-10.408-4.423-10.408-4.423Z" transform="translate(-673.532 -445.214)"/><path class="j" d="M833.069,503.143s-.39,14.441-4.033,14.961,0-11.058,0-11.058l.13-4.423Z" transform="translate(-749.731 -432.488)"/><path class="c" d="M823.195,350.053s6.765-1.951,8.066,3.253,1.691,23.158,1.691,23.158l2.342,14.311s-4.293-1.3-5.2-.65l-5.464-6.9Z" transform="translate(-750.915 -317.257)"/><path class="f" d="M823.195,350.053s6.765-1.951,8.066,3.253,1.691,23.158,1.691,23.158l2.342,14.311s-4.293-1.3-5.2-.65l-5.464-6.9Z" transform="translate(-750.915 -317.257)"/><path class="j" d="M904.161,663.225s-4.547,8.938-7.279,8.808-5.334-1.821-6.635,3.513.26,3.9-1.3,7.025-1.821,8.587,1.171,9.888,5.724,1.431,5.854,0-2.6-1.431.52-6.505,9.758-14.311,12.49-15.222S904.161,663.225,904.161,663.225Z" transform="translate(-841.126 -553.501)"/><path class="h" d="M815.1,497.873s-9.367,15.612-3.253,20.165,24.329,13.27,24.329,13.27-9.757,6.635-10.278,8.847,4.684,8.2,6.5,8.326,7.156-5.984,12.88-7.546,9.237-12.75,2.992-16.913a69.787,69.787,0,0,1-12.1-11.059L838,502.948Z" transform="translate(-763.901 -428.909)"/><path class="j" d="M838.765,256.313c0,5.533,5.667,10.106,11.2,10.106a10.018,10.018,0,0,0,0-20.035C844.432,246.384,838.765,250.78,838.765,256.313Z" transform="translate(-779.442 -239.413)"/><path class="c" d="M857.66,331.525s-8.977-3.9-8.977-4.423-5.2,1.171-6.375,2.212-1.822.911-2.6,2.992,3.9,21.466,3.9,21.466-2.6,14.962-4.033,16.393,11.579,3.513,11.579,3.513,8.587,1.561,10.018,2.212,4.033,1.561,3.513,0-2.732-2.732,1.041-4.684c0,0-1.3-6.375,0-9.237s7.286-13.27,2.472-20.816-7.026-10.278-7.026-10.278A3.665,3.665,0,0,1,857.66,331.525Z" transform="translate(-789.673 -300.16)"/><path class="j" d="M815.51,489.428s10.148,4.5,13.205,4.917,12.294,2.758,7.22,4.84-12.75-1.041-12.75-1.041l-10.8-4.554Z" transform="translate(-750.386 -422.546)"/><path class="f" d="M892.4,343s-3.747-1.813-4.788,4.562-4.683,26.54,0,29.533S903.1,384.9,903.1,384.9s6.375-4.293,3.382-5.854-10.148-5.985-11.188-7.546-2.092-18.987-.271-21.85S892.4,343,892.4,343Z" transform="translate(-838.204 -312.03)"/><path class="c" d="M898.725,337.422s-5.2-.26-6.245,6.115-4.684,26.54,0,29.533,15.482,7.806,15.482,7.806,6.375-4.293,3.383-5.855-10.148-5.984-11.189-7.546.781-17.824,2.6-20.686S898.725,337.422,898.725,337.422Z" transform="translate(-844.27 -308.009)"/><path class="i" d="M851.5,218.228c1.6.217,3.31.8,4.114,2.2a18.6,18.6,0,0,1,.823,2.214c.836,2.01,2.866,3.21,4.332,4.819,1.91,2.1,2.859,5.257,1.732,7.86a32.177,32.177,0,0,1-1.682,2.83c-1.5,2.673-1.579,5.883-1.622,8.947l-.084,6.025a8.655,8.655,0,0,0,.254,2.736,2.929,2.929,0,0,0,1.773,1.976,4.6,4.6,0,0,1-5.351-1.827,4.7,4.7,0,0,0,1.435,4.166,9.313,9.313,0,0,1-5.646-4.4,17.046,17.046,0,0,1-2.106-6.982,9.154,9.154,0,0,1,.22-3.852,12.049,12.049,0,0,1,1.262-2.423,18.713,18.713,0,0,0,2.721-6.468,8.3,8.3,0,0,0-1.508-6.673,6.028,6.028,0,0,0-4.761-2.183,5.3,5.3,0,0,0-4.419,2.705c-.348.655-.843,1.543-1.548,1.313a3.8,3.8,0,0,1-.382-.187c-.786-.358-1.68.348-2.026,1.14-1.094,2.5.921,5.221,1.13,7.939.194,2.528-1.216,4.912-2.9,6.806a22.361,22.361,0,0,1-10.933,6.717,3.068,3.068,0,0,0,1.586-.985,20.821,20.821,0,0,1-5.116-.429,35.28,35.28,0,0,0,5.2-4.479,11.827,11.827,0,0,0,3.068-6.044c.443-3.044-.691-6.341.6-9.131,1.185-2.55,4.125-3.976,5.2-6.575,1.09-2.64,1.8-4.934,4.684-6.084A19.855,19.855,0,0,1,851.5,218.228Z" transform="translate(-778.512 -218.103)"/></svg>