<svg xmlns="http://www.w3.org/2000/svg" xmlns:xlink="http://www.w3.org/1999/xlink" width="26" height="32.5" viewBox="0 0 26 32.5"><defs><style>.a,.c{fill:#fff;}.a{stroke:#707070;}.b{clip-path:url(#a);}</style><clipPath id="a"><rect class="a" width="26" height="32.5"/></clipPath></defs><g class="b"><g transform="translate(-20.576 6.963)"><rect class="c" width="4.853" height="20.186" transform="translate(97.554 0.07)"/><path class="c" d="M122.239,1.266A4.547,4.547,0,0,0,119.144,0H103.6V20.186h15.544a4.136,4.136,0,0,0,3.095-1.266,4.247,4.247,0,0,0,1.266-3.095V4.361A4.417,4.417,0,0,0,122.239,1.266Zm-3.587,13.082a.995.995,0,0,1-1.125,1.125h-9.073V4.712h9.073a1.121,1.121,0,0,1,.844.281,1.121,1.121,0,0,1,.281.844Z" transform="translate(-30.733 0.07)"/><path class="c" d="M7.877,7.737v4.712H15.4v2.11a1.414,1.414,0,0,1-.281.563,1.121,1.121,0,0,1-.844.281h-8.3a1.121,1.121,0,0,1-.844-.281.868.868,0,0,1-.281-.563V5.627a1.414,1.414,0,0,1,.281-.563.947.947,0,0,1,.844-.352H17.795V0H4.361A4.03,4.03,0,0,0,1.266,1.266,4.136,4.136,0,0,0,0,4.361V15.825a4.9,4.9,0,0,0,.352,1.758,4.856,4.856,0,0,0,.914,1.407A4.505,4.505,0,0,0,2.6,19.9a4.9,4.9,0,0,0,1.758.352H15.825A4.136,4.136,0,0,0,18.92,18.99,4.247,4.247,0,0,0,20.186,15.9V7.737Z" transform="translate(0 0.07)"/><path class="c" d="M203.865,20.156h3.024V-.03h-4.783V12.209L190.009.252A1.855,1.855,0,0,0,188.954-.1H186V20.086h4.783V7.988l12.1,11.887A2.118,2.118,0,0,0,203.865,20.156Z" transform="translate(-55.177 0.1)"/><path class="c" d="M166.1.774A1.056,1.056,0,0,0,165.047,0h-8.511a1.143,1.143,0,0,0-1.055.774L148.8,20.186h5.064l1.547-4.712h10.832l1.618,4.712h4.994Zm-9.214,10.058,1.9-5.838a.475.475,0,0,1,.422-.281H162.3a.475.475,0,0,1,.422.281l1.9,5.838Z" transform="translate(-44.142 0.07)"/><g transform="translate(22.841 0.07)"><path class="c" d="M53.258,3.868,51.429.7a1.521,1.521,0,0,0-1.2-.7H40.175a1.553,1.553,0,0,0-1.2.7L37.151,3.939a.852.852,0,0,0-.07.7h0l.211.281h4.22l-.281-.563a.258.258,0,0,1,.211-.422h7.526c.281,0,.352.211.211.422L45.732,10.41l2.11,3.657,5.416-9.425A.762.762,0,0,0,53.258,3.868Z" transform="translate(-33.828)"/><path class="c" d="M48.078,22.619h3.728a1.553,1.553,0,0,0,1.2-.7l5.064-8.722a1.49,1.49,0,0,0,0-1.336L56.237,8.622A.937.937,0,0,0,55.6,8.2h-.352l-2.11,3.657h.633c.281,0,.352.211.211.422l-3.728,6.541a.271.271,0,0,1-.492,0L46.32,12.772H42.1L47.516,22.2C47.516,22.478,47.8,22.619,48.078,22.619Z" transform="translate(-35.33 -2.433)"/><path class="c" d="M34.462,8.652l-1.829,3.235a1.49,1.49,0,0,0,0,1.336L37.7,21.945a1.521,1.521,0,0,0,1.2.7h3.728a.659.659,0,0,0,.633-.352h0l.211-.281-2.11-3.657-.281.563a.271.271,0,0,1-.492,0l-3.728-6.541a.258.258,0,0,1,.211-.422h6.963L46.138,8.3H35.165A.866.866,0,0,0,34.462,8.652Z" transform="translate(-32.475 -2.462)"/></g><path class="c" d="M87.731,14.067a4.116,4.116,0,0,0,.985-2.884V4.361A4.294,4.294,0,0,0,87.45,1.2,4.243,4.243,0,0,0,84.355,0H68.6V20.186h4.853V15.544H81.12l2.251,4.642h5.345l-2.462-5.064A3.591,3.591,0,0,0,87.731,14.067Zm-3.8-4.361a.995.995,0,0,1-1.125,1.125H73.453V4.712h9.355a1.121,1.121,0,0,1,.844.281,1.121,1.121,0,0,1,.281.844Z" transform="translate(-20.35 0.07)"/></g></g></svg>