<svg xmlns="http://www.w3.org/2000/svg" width="21.505" height="23.638" viewBox="0 0 21.505 23.638"><defs><style>.a,.b{fill:#fff;}.b{stroke:#49575f;stroke-linejoin:round;stroke-width:2px;}</style></defs><g transform="translate(-21 -161.362)"><path class="a" d="M4.28,20.245a1.426,1.426,0,0,0,.239.788l.761,1.145a1.425,1.425,0,0,0,1.187.636h2.75a1.425,1.425,0,0,0,1.187-.636l.762-1.145a1.425,1.425,0,0,0,.239-.788l0-1.709H4.278l0,1.709ZM0,7.842A7.8,7.8,0,0,0,1.941,13a12.8,12.8,0,0,1,2.326,4.075c0,.012,0,.023,0,.035h7.14c0-.012,0-.023,0-.035A12.8,12.8,0,0,1,13.743,13,7.841,7.841,0,1,0,0,7.842Z" transform="translate(21 162.186)"/><path class="b" d="M9.253,13.075l4.482,2.705-1.189-5.1,3.96-3.43-5.215-.442L9.253,2,7.215,6.808,2,7.251l3.96,3.43-1.189,5.1Z" transform="translate(25 160.362)"/></g></svg>