<svg xmlns="http://www.w3.org/2000/svg" width="15.125" height="22" viewBox="0 0 15.125 22"><defs><style>.a{fill:#fff;}</style></defs><path class="a" d="M4.127,19.522a1.376,1.376,0,0,0,.23.76l.734,1.1A1.375,1.375,0,0,0,6.237,22H8.888a1.375,1.375,0,0,0,1.145-.614l.734-1.1a1.374,1.374,0,0,0,.23-.76l0-1.648H4.125l0,1.648ZM0,7.562a7.52,7.52,0,0,0,1.872,4.975,12.348,12.348,0,0,1,2.243,3.929c0,.011,0,.022,0,.034H11c0-.011,0-.022,0-.034a12.348,12.348,0,0,1,2.243-3.929A7.561,7.561,0,1,0,0,7.562ZM7.562,4.125A3.441,3.441,0,0,0,4.125,7.562a.687.687,0,1,1-1.375,0A4.818,4.818,0,0,1,7.562,2.75a.687.687,0,1,1,0,1.375Z" transform="translate(0 0)"/></svg>