<svg xmlns="http://www.w3.org/2000/svg" width="22.792" height="21.936" viewBox="0 0 22.792 21.936"><defs><style>.a{fill:#c2ced6;}.b{opacity:0.95;}.c{fill:#fff;}.d{fill:#edeeef;}.e{fill:#d9d9d9;}.f{fill:#f4f5f5;}</style></defs><path class="a" d="M60.174,71.35l-.094.027.035.035Z" transform="translate(-40.87 -49.476)"/><path class="a" d="M19.35,60.767,22.14,58h0l-2.787,2.787Z" transform="translate(-16.036 -41.337)"/><g class="b"><circle class="c" cx="4.91" cy="4.91" r="4.91" transform="translate(6.487 6.551)"/><path class="d" d="M33.652,26.7a11.4,11.4,0,1,0-19.479,8.036l2.787-2.787a7.536,7.536,0,1,1,10.662.02l.679.71,2.041,2.041A11.357,11.357,0,0,0,33.652,26.7Z" transform="translate(-10.859 -15.303)"/><path class="c" d="M34.56,29.393a9.78,9.78,0,1,0-16.754,6.853L20.2,33.854a6.467,6.467,0,1,1,9.214.043l2.342,2.342a9.757,9.757,0,0,0,2.806-6.845Z" transform="translate(-13.384 -17.928)"/></g><path class="e" d="M46.6,31.12l-7.279,5.5a1.339,1.339,0,0,1-1.335,1.12,1.378,1.378,0,1,1,0-2.755,1.464,1.464,0,0,1,.429.043Z" transform="translate(-26.56 -24.947)"/><circle class="f" cx="0.558" cy="0.558" r="0.558" transform="translate(10.881 10.903)"/></svg>